<?xml version="1.0" encoding="UTF-8" standalone="no"?>
<!DOCTYPE svg PUBLIC "-//W3C//DTD SVG 1.1//EN" "http://www.w3.org/Graphics/SVG/1.1/DTD/svg11.dtd">
<svg width="102.86" height="102.86" viewBox="0.00 0.00 500.00 500.00" xmlns="http://www.w3.org/2000/svg" xmlns:xlink="http://www.w3.org/1999/xlink">
<g stroke-linecap="round" id="레이어_2">
<path d="M266.49,77.91 C266.51,101.62 266.56,159.08 266.59,192.84 C266.62,235.24 266.68,313.91 266.71,350.19 C266.73,376.40 266.76,407.60 266.76,412.58" fill="none" stroke="rgb(0, 0, 0)" stroke-width="27.00" stroke-opacity="1.00" stroke-linejoin="round"/>
<path d="M196.49,77.91 C196.51,101.62 196.56,159.08 196.59,192.84 C196.62,235.24 196.68,313.91 196.71,350.19 C196.73,376.40 196.76,407.60 196.76,412.58" fill="none" stroke="rgb(0, 0, 0)" stroke-width="27.00" stroke-opacity="1.00" stroke-linejoin="round"/>
<path d="M269.33,100.08 C275.34,100.86 294.12,103.31 299.53,104.37 C309.01,106.24 324.07,111.35 330.80,114.63 C337.09,117.72 350.97,126.36 356.37,130.59 C362.43,135.36 373.51,145.95 378.57,151.78 C384.22,158.31 392.19,170.31 395.75,176.89 C399.43,183.74 405.80,198.77 407.58,205.08 C409.68,212.63 412.42,227.64 413.09,235.28 C413.83,243.90 413.23,258.29 412.24,265.70 C411.19,273.40 407.51,289.30 405.24,295.46 C402.50,302.80 395.89,316.55 391.95,323.12 C387.49,330.52 378.55,341.82 373.41,347.23 C368.01,352.88 356.10,363.21 350.29,367.21 C344.03,371.50 330.44,379.17 323.76,381.91 C316.07,385.03 299.60,389.10 290.31,390.30 C282.31,391.23 271.83,392.46 269.33,392.75" fill="none" stroke="rgb(0, 0, 0)" stroke-width="27.00" stroke-opacity="1.00" stroke-linejoin="round"/>
<path d="M273.05,449.45 L83.74,329.59" fill="none" stroke="rgb(0, 0, 0)" stroke-width="25.00" stroke-opacity="1.00" stroke-linejoin="round"/>
<path d="M84.45,329.70 L207.01,253.84" fill="none" stroke="rgb(0, 0, 0)" stroke-width="25.00" stroke-opacity="1.00" stroke-linejoin="round"/>
<path d="M272.05,50.55 L82.74,170.41" fill="none" stroke="rgb(0, 0, 0)" stroke-width="25.00" stroke-opacity="1.00" stroke-linejoin="round"/>
<path d="M83.45,170.30 L204.67,251.99" fill="none" stroke="rgb(0, 0, 0)" stroke-width="25.00" stroke-opacity="1.00" stroke-linejoin="round"/>
<path d="M105.95,81.84 Q106.51,82.23 107.19,82.62" fill="none" stroke="rgb(255, 255, 255)" stroke-width="17.00" stroke-opacity="1.00" stroke-linejoin="round"/>
</g>
</svg>
